:FULLY-SPECIFIED
:FORCE-ALL-JOINTS-BE-3DOF
:DEGREES
204
root 4.8066 15.1466 -25.4293 0 0 0
lfemur 0 0 0
ltibia 0 0 0
lfoot -31.3208 -13.3472 -0.272302
ltoes 0 0 0
rfemur -29.6991 -18.9768 -7.66409
rtibia 0 0 0
rfoot 0 0 0
rtoes 0 0 0
lowerback 0 0 0
upperback 0 0 0
thorax 0.212402 -1.27254 -6.64621
lowerneck 0 0 0
upperneck 0 0 0
head 3.08925 -0.116039 -0.187569
lclavicle 0 0 0
lhumerus 0 0 0
lradius 54.9795 -0 0
lwrist 24.5244 0 0
lhand 0 0 0
lfingers 0 0 0
lthumb 0 0 0
rclavicle 0 0 0
rhumerus 0 0 0
rradius 0 0 0
rwrist -21.9484 0 0
rhand 0 0 0
rfingers 0 0 0
rthumb 0 0 0
205
root 4.78964 15.1227 -25.4464 0 0 0
lfemur 0 0 0
ltibia 0 0 0
lfoot -32.1097 -12.7027 -0.221289
ltoes 0 0 0
rfemur -30.3479 -19.4254 -7.48683
rtibia 0 0 0
rfoot 0 0 0
rtoes 0 0 0
lowerback 0 0 0
upperback 0 0 0
thorax 0.141293 -1.24577 -6.66258
lowerneck 0 0 0
upperneck 0 0 0
head 3.05908 -0.0309053 -0.256128
lclavicle 0 0 0
lhumerus 0 0 0
lradius 55.0276 -0 0
lwrist 24.8246 0 0
lhand 0 0 0
lfingers 0 0 0
lthumb 0 0 0
rclavicle 0 0 0
rhumerus 0 0 0
rradius 0 0 0
rwrist -22.1562 0 0
rhand 0 0 0
rfingers 0 0 0
rthumb 0 0 0
206
root 4.77452 15.1012 -25.4636 0 0 0
lfemur 0 0 0
ltibia 0 0 0
lfoot -32.8164 -12.1257 -0.16803
ltoes 0 0 0
rfemur -30.9323 -19.8259 -7.32294
rtibia 0 0 0
rfoot 0 0 0
rtoes 0 0 0
lowerback 0 0 0
upperback 0 0 0
thorax 0.0775486 -1.2218 -6.67728
lowerneck 0 0 0
upperneck 0 0 0
head 3.03195 0.045373 -0.317619
lclavicle 0 0 0
lhumerus 0 0 0
lradius 55.0707 -0 0
lwrist 25.0936 0 0
lhand 0 0 0
lfingers 0 0 0
lthumb 0 0 0
rclavicle 0 0 0
rhumerus 0 0 0
rradius 0 0 0
rwrist -22.3424 0 0
rhand 0 0 0
rfingers 0 0 0
rthumb 0 0 0
207
root 4.76124 15.0825 -25.4807 0 0 0
lfemur 0 0 0
ltibia 0 0 0
lfoot -33.4264 -11.6277 -0.116292
ltoes 0 0 0
rfemur -31.4394 -20.1706 -7.17752
rtibia 0 0 0
rfoot 0 0 0
rtoes 0 0 0
lowerback 0 0 0
upperback 0 0 0
thorax 0.0224728 -1.20111 -6.69
lowerneck 0 0 0
upperneck 0 0 0
head 3.00844 0.11125 -0.370772
lclavicle 0 0 0
lhumerus 0 0 0
lradius 55.108 -0 0
lwrist 25.326 0 0
lhand 0 0 0
lfingers 0 0 0
lthumb 0 0 0
rclavicle 0 0 0
rhumerus 0 0 0
rradius 0 0 0
rwrist -22.5033 0 0
rhand 0 0 0
rfingers 0 0 0
rthumb 0 0 0
208
root 4.7498 15.067 -25.4976 0 0 0
lfemur 0 0 0
ltibia 0 0 0
lfoot -33.9256 -11.2204 -0.0699786
ltoes 0 0 0
rfemur -31.8561 -20.452 -7.05577
rtibia 0 0 0
rfoot 0 0 0
rtoes 0 0 0
lowerback 0 0 0
upperback 0 0 0
thorax -0.0226318 -1.18417 -6.70043
lowerneck 0 0 0
upperneck 0 0 0
head 2.98914 0.16518 -0.41432
lclavicle 0 0 0
lhumerus 0 0 0
lradius 55.1385 -0 0
lwrist 25.5164 0 0
lhand 0 0 0
lfingers 0 0 0
lthumb 0 0 0
rclavicle 0 0 0
rhumerus 0 0 0
rradius 0 0 0
rwrist -22.6351 0 0
rhand 0 0 0
rfingers 0 0 0
rthumb 0 0 0
209
root 4.7402 15.0549 -25.514 0 0 0
lfemur 0 0 0
ltibia 0 0 0
lfoot -34.2997 -10.9152 -0.0329163
ltoes 0 0 0
rfemur -32.1696 -20.6625 -6.96287
rtibia 0 0 0
rfoot 0 0 0
rtoes 0 0 0
lowerback 0 0 0
upperback 0 0 0
thorax -0.056462 -1.17147 -6.70827
lowerneck 0 0 0
upperneck 0 0 0
head 2.97465 0.205618 -0.446993
lclavicle 0 0 0
lhumerus 0 0 0
lradius 55.1613 -0 0
lwrist 25.6591 0 0
lhand 0 0 0
lfingers 0 0 0
lthumb 0 0 0
rclavicle 0 0 0
rhumerus 0 0 0
rradius 0 0 0
rwrist -22.7339 0 0
rhand 0 0 0
rfingers 0 0 0
rthumb 0 0 0
210
root 4.73244 15.0465 -25.5299 0 0 0
lfemur 0 0 0
ltibia 0 0 0
lfoot -34.5347 -10.7236 -0.00861472
ltoes 0 0 0
rfemur -32.367 -20.7945 -6.90382
rtibia 0 0 0
rfoot 0 0 0
rtoes 0 0 0
lowerback 0 0 0
upperback 0 0 0
thorax -0.0777152 -1.1635 -6.71319
lowerneck 0 0 0
upperneck 0 0 0
head 2.96553 0.231017 -0.467523
lclavicle 0 0 0
lhumerus 0 0 0
lradius 55.1757 -0 0
lwrist 25.7488 0 0
lhand 0 0 0
lfingers 0 0 0
lthumb 0 0 0
rclavicle 0 0 0
rhumerus 0 0 0
rradius 0 0 0
rwrist -22.796 0 0
rhand 0 0 0
rfingers 0 0 0
rthumb 0 0 0
211
root 4.72652 15.0422 -25.545 7.70309 -0.491237 4.781
lfemur 4.68749 -3.76403 2.18034
ltibia 8.54457 0 0
lfoot -34.6162 -10.6571 0
ltoes 48.2181 0 0
rfemur -32.4355 -20.8402 -6.88321
rtibia 51.7854 0 0
rfoot -27.3336 18.1638 0
rtoes 60.2405 0 0
lowerback -1.55725 -1.71709 -0.719351
upperback -0.684689 -2.27746 -6.82404
thorax -0.0850889 -1.16073 -6.7149
lowerneck -10.8231 0.864097 6.56772
upperneck 3.25503 0.122515 2.05509
head 2.96236 0.239828 -0.474647
lclavicle 1.98785e-16 1.43125e-14 0
lhumerus -59.6189 -45.5717 116.787
lradius 55.1807 0 0
lwrist 25.7799 0 0
lhand 36.6442 28.8925 0
lfingers 7.12502 0 0
lthumb 59.5601 43.1265 0
rclavicle 1.98785e-16 1.43125e-14 0
rhumerus -9.06837 -30.5869 -16.6934
rradius 71.0267 0 0
rwrist -22.8175 0 0
rhand -51.6573 -63.0713 0
rfingers 7.12502 0 0
rthumb -24.1789 91.567 0
212
root 4.72135 15.0419 -25.5605 7.82598 -0.0971954 4.4601
lfemur 3.57338 -2.71626 2.50662
ltibia 0 0 0
lfoot 0 0 0
ltoes 46.3431 -0 0
rfemur -32.2287 -20.8108 -6.5393
rtibia 51.4265 -0 0
rfoot 0 0 0
rtoes 0 0 0
lowerback -1.47113 -1.72083 -0.635521
upperback 0 0 0
thorax 0 0 0
lowerneck -10.8566 0.822759 6.40632
upperneck 3.18749 0.0916173 2.0068
head 0 0 0
lclavicle 0 0 0
lhumerus 0 0 0
lradius 55.3353 -0 0
lwrist 25.582 0 0
lhand 0 0 0
lfingers 0 0 0
lthumb 58.963 43.0868 0.00720798
rclavicle 0 0 0
rhumerus -9.37165 -29.5059 -18.1785
rradius 72.1127 -0 0
rwrist 0 0 0
rhand -48.9625 -62.3371 0.816093
rfingers 0 0 0
rthumb 0 0 0
213
root 4.71604 15.0451 -25.5777 7.98094 0.411077 4.04823
lfemur 2.14899 -1.35847 2.89625
ltibia 0 0 0
lfoot 0 0 0
ltoes 43.9292 -0 0
rfemur -31.9622 -20.7748 -6.09651
rtibia 50.9644 -0 0
rfoot 0 0 0
rtoes 0 0 0
lowerback -1.36027 -1.72582 -0.527609
upperback 0 0 0
thorax 0 0 0
lowerneck -10.8996 0.769403 6.19857
upperneck 3.10058 0.0517573 1.94468
head 0 0 0
lclavicle 0 0 0
lhumerus 0 0 0
lradius 55.5344 -0 0
lwrist 25.3273 0 0
lhand 0 0 0
lfingers 0 0 0
lthumb 58.1943 43.0356 0.0158777
rclavicle 0 0 0
rhumerus -9.80409 -28.1248 -20.0774
rradius 73.5108 -0 0
rwrist 0 0 0
rhand -45.4771 -61.3364 1.81417
rfingers 0 0 0
rthumb 0 0 0
214
root 4.71094 15.0516 -25.5962 8.16156 1.02063 3.5572
lfemur 0.457363 0.278087 3.3178
ltibia 0 0 0
lfoot 0 0 0
ltoes 41.0413 -0 0
rfemur -31.6431 -20.7341 -5.56664
rtibia 50.4116 -0 0
rfoot 0 0 0
rtoes 0 0 0
lowerback -1.22765 -1.73207 -0.398513
upperback 0 0 0
thorax 0 0 0
lowerneck -10.9508 0.705362 5.95007
upperneck 2.99665 0.00394391 1.87045
head 0 0 0
lclavicle 0 0 0
lhumerus 0 0 0
lradius 55.7726 -0 0
lwrist 25.0225 0 0
lhand 0 0 0
lfingers 0 0 0
lthumb 57.2746 42.9742 0.0253468
rclavicle 0 0 0
rhumerus -10.3813 -26.49 -22.3339
rradius 75.1836 -0 0
rwrist 0 0 0
rhand -41.2817 -60.0612 2.92538
rfingers 0 0 0
rthumb 0 0 0
215
root 4.70637 15.0611 -25.6159 8.36144 1.71847 2.99874
lfemur -1.46063 2.1609 3.74008
ltibia 0 0 0
lfoot 0 0 0
ltoes 37.7438 -0 0
rfemur -31.2784 -20.6911 -4.96153
rtibia 49.7804 -0 0
rfoot 0 0 0
rtoes 0 0 0
lowerback -1.07624 -1.73957 -0.25113
upperback 0 0 0
thorax 0 0 0
lowerneck -11.0089 0.63197 5.66642
upperneck 2.87807 -0.0508135 1.78579
head 0 0 0
lclavicle 0 0 0
lhumerus 0 0 0
lradius 56.0445 -0 0
lwrist 24.6745 0 0
lhand 0 0 0
lfingers 0 0 0
lthumb 56.2245 42.904 0.0349521
rclavicle 0 0 0
rhumerus -11.1169 -24.6497 -24.8954
rradius 77.0935 -0 0
rwrist 0 0 0
rhand -36.4568 -58.5084 4.07578
rfingers 0 0 0
rthumb 0 0 0
216
root 4.70265 15.0735 -25.6365 8.5744 2.49151 2.38443
lfemur -3.56714 4.25568 4.13373
ltibia 0 0 0
lfoot 0 0 0
ltoes 34.1015 -0 0
rfemur -30.8751 -20.6477 -4.293
rtibia 49.0831 -0 0
rfoot 0 0 0
rtoes 0 0 0
lowerback -0.909018 -1.74831 -0.088358
upperback 0 0 0
thorax 0 0 0
lowerneck -11.0726 0.55057 5.35319
upperneck 2.74717 -0.111501 1.69241
head 0 0 0
lclavicle 0 0 0
lhumerus 0 0 0
lradius 56.3449 -0 0
lwrist 24.2901 0 0
lhand 0 0 0
lfingers 0 0 0
lthumb 55.0646 42.8262 0.044063
rclavicle 0 0 0
rhumerus -12.0203 -22.6537 -27.713
rradius 79.2031 -0 0
rwrist 0 0 0
rhand -31.0845 -56.6844 5.18924
rfingers 0 0 0
rthumb 0 0 0
217
root 4.70012 15.0886 -25.6578 8.79461 3.3265 1.72562
lfemur -5.82765 6.52607 4.47222
ltibia 0 0 0
lfoot 0 0 0
ltoes 30.179 -0 0
rfemur -30.4404 -20.606 -3.5729
rtibia 48.3323 -0 0
rfoot 0 0 0
rtoes 0 0 0
lowerback -0.728961 -1.75825 0.0869068
upperback 0 0 0
thorax 0 0 0
lowerneck -11.1408 0.462521 5.01597
upperneck 2.60632 -0.177094 1.59201
head 0 0 0
lclavicle 0 0 0
lhumerus 0 0 0
lradius 56.6684 -0 0
lwrist 23.8762 0 0
lhand 0 0 0
lfingers 0 0 0
lthumb 53.8154 42.7422 0.0521109
rclavicle 0 0 0
rhumerus -13.0954 -20.5523 -30.7419
rradius 81.475 -0 0
rwrist 0 0 0
rhand -25.2517 -54.6086 6.19143
rfingers 0 0 0
rthumb 0 0 0
218
root 4.6991 15.1061 -25.6796 9.0167 4.21005 1.03341
lfemur -8.21091 8.93361 4.73278
ltibia 0 0 0
lfoot 0 0 0
ltoes 26.041 -0 0
rfemur -29.9813 -20.5675 -2.81309
rtibia 47.5402 -0 0
rfoot 0 0 0
rtoes 0 0 0
lowerback -0.539044 -1.76933 0.271768
upperback 0 0 0
thorax 0 0 0
lowerneck -11.2121 0.369201 4.66034
upperneck 2.45786 -0.246559 1.48626
head 0 0 0
lclavicle 0 0 0
lhumerus 0 0 0
lradius 57.0097 -0 0
lwrist 23.4395 0 0
lhand 0 0 0
lfingers 0 0 0
lthumb 52.4975 42.6534 0.0586144
rclavicle 0 0 0
rhumerus -14.3399 -18.3961 -33.9399
rradius 83.8718 -0 0
rwrist 0 0 0
rhand -19.0518 -52.3157 7.01444
rfingers 0 0 0
rthumb 0 0 0
219
root 4.69992 15.1257 -25.7016 9.23586 5.12856 0.318673
lfemur -10.6884 11.438 4.89693
ltibia 0 0 0
lfoot 0 0 0
ltoes 21.7522 -0 0
rfemur -29.5051 -20.5336 -2.02544
rtibia 46.7192 -0 0
rfoot 0 0 0
rtoes 0 0 0
lowerback -0.342241 -1.78146 0.46333
upperback 0 0 0
thorax 0 0 0
lowerneck -11.2854 0.272013 4.29187
upperneck 2.30411 -0.318845 1.37684
head 0 0 0
lclavicle 0 0 0
lhumerus 0 0 0
lradius 57.3634 -0 0
lwrist 22.9869 0 0
lhand 0 0 0
lfingers 0 0 0
lthumb 51.1317 42.5613 0.0631986
rclavicle 0 0 0
rhumerus -15.7448 -16.2341 -37.2664
rradius 86.3559 -0 0
rwrist 0 0 0
rhand -12.5861 -49.8554 7.60181
rfingers 0 0 0
rthumb 0 0 0
220
root 4.70291 15.1473 -25.7237 9.44789 6.06827 -0.407944
lfemur -13.2334 13.9975 4.95097
ltibia 0 0 0
lfoot 0 0 0
ltoes 17.3771 -0 0
rfemur -29.0189 -20.5054 -1.22185
rtibia 45.8817 -0 0
rfoot 0 0 0
rtoes 0 0 0
lowerback -0.141523 -1.79452 0.6587
upperback 0 0 0
thorax 0 0 0
lowerneck -11.3595 0.172388 3.91613
upperneck 2.14742 -0.392887 1.26543
head 0 0 0
lclavicle 0 0 0
lhumerus 0 0 0
lradius 57.7242 -0 0
lwrist 22.5252 0 0
lhand 0 0 0
lfingers 0 0 0
lthumb 49.7383 42.4672 0.0656108
rclavicle 0 0 0
rhumerus -17.2943 -14.1129 -40.6808
rradius 88.89 -0 0
rwrist 0 0 0
rhand -5.96344 -47.2906 7.91332
rfingers 0 0 0
rthumb 0 0 0
221
root 4.7084 15.1706 -25.7456 9.64925 7.01521 -1.13599
lfemur -15.8199 16.5694 4.88648
ltibia 0 0 0
lfoot 0 0 0
ltoes 12.9805 -0 0
rfemur -28.53 -20.4834 -0.4142
rtibia 45.0401 -0 0
rfoot 0 0 0
rtoes 0 0 0
lowerback 0.0601394 -1.80833 0.854986
upperback 0 0 0
thorax 0 0 0
lowerneck -11.4334 0.0717853 3.53866
upperneck 1.9901 -0.467599 1.15367
head 0 0 0
lclavicle 0 0 0
lhumerus 0 0 0
lradius 58.0868 -0 0
lwrist 22.0612 0 0
lhand 0 0 0
lfingers 0 0 0
lthumb 48.3381 42.3726 0.0657297
rclavicle 0 0 0
rhumerus -18.9657 -12.0752 -44.141
rradius 91.4366 -0 0
rwrist 0 0 0
rhand 0.701951 -44.6928 7.92873
rfingers 0 0 0
rthumb 0 0 0
222
root 4.71671 15.1955 -25.7671 9.83708 7.9553 -1.85514
lfemur -18.4211 19.1107 4.70077
ltibia 0 0 0
lfoot 0 0 0
ltoes 8.62697 -0 0
rfemur -28.0457 -20.4681 0.385603
rtibia 44.2067 -0 0
rfoot 0 0 0
rtoes 0 0 0
lowerback 0.259778 -1.82268 1.0493
upperback 0 0 0
thorax 0 0 0
lowerneck -11.5058 -0.0283086 3.16503
upperneck 1.83446 -0.541881 1.04321
head 0 0 0
lclavicle 0 0 0
lhumerus 0 0 0
lradius 58.4459 -0 0
lwrist 21.6018 0 0
lhand 0 0 0
lfingers 0 0 0
lthumb 46.9516 42.279 0.0635705
rclavicle 0 0 0
rhumerus -20.7296 -10.1584 -47.602
rradius 93.9581 -0 0
rwrist 0 0 0
rhand 7.29391 -42.1368 7.64973
rfingers 0 0 0
rthumb 0 0 0
